# xmcd CD database file
#
# Track frame offsets:
#	150
#	34946
#	67222
#	121757
#	160229
#	195613
#	240876
#	266182
#	320217
#
# Disc length: 4663 seconds
#
# Revision: 0
# Processed by: cddbd v1.5.2PL0 Copyright (c) Steve Scherf et al.
# Submitted via: CDex 1.70beta2
#
DISCID=81123509
DTITLE=Movio - Live at HiJazz
DYEAR=2010
DGENRE=Jazz
TTITLE0=Cluster har en date
TTITLE1=Collegium Blues
TTITLE2=A day in may
TTITLE3=Basic
TTITLE4=Skagentåget
TTITLE5=En berättelse
TTITLE6=Flickan hon går i ringen
TTITLE7=Kvartersminnen
TTITLE8=Insect of the Esker (Exerpt)
EXTD=YEAR: 2010
EXTT0=
EXTT1=
EXTT2=
EXTT3=
EXTT4=
EXTT5=
EXTT6=
EXTT7=
EXTT8=
PLAYORDER=
